<?xml version="1.0" encoding="utf-8"?>
<!-- Generator: Adobe Illustrator 25.2.0, SVG Export Plug-In . SVG Version: 6.00 Build 0)  -->
<svg version="1.1" id="Layer_1" xmlns="http://www.w3.org/2000/svg" xmlns:xlink="http://www.w3.org/1999/xlink" x="0px" y="0px"
	 viewBox="0 0 166 49" style="enable-background:new 0 0 166 49;" xml:space="preserve">
<style type="text/css">
	.st0{fill-rule:evenodd;clip-rule:evenodd;fill:#FFFFFF;}
	.st1{filter:url(#Adobe_OpacityMaskFilter);}
	.st2{mask:url(#b_1_);fill-rule:evenodd;clip-rule:evenodd;fill:#FFFFFF;}
</style>
<g>
	<path class="st0" d="M0,14.5v0.1l28,13.1l28-13.2v0L28,1.3L0,14.5z M10.1,14.5L28,6.1l17.9,8.4L28,22.9L10.1,14.5L10.1,14.5z
		 M28,32.8L0,19.9v4.8l28,13l28-13v-4.8L28,32.8z M28,42.5L0,29.6v4.8l28,13l28-13v-4.8L28,42.5z"/>
	<g transform="translate(72)">
		<defs>
			<filter id="Adobe_OpacityMaskFilter" filterUnits="userSpaceOnUse" x="0" y="0.4" width="94" height="48.3">
				<feColorMatrix  type="matrix" values="1 0 0 0 0  0 1 0 0 0  0 0 1 0 0  0 0 0 1 0"/>
			</filter>
		</defs>
		<mask maskUnits="userSpaceOnUse" x="0" y="0.4" width="94" height="48.3" id="b_1_">
			<g class="st1">
				<path id="a_1_" class="st0" d="M0,0.4h94v48.3H0L0,0.4z"/>
			</g>
		</mask>
		<path class="st2" d="M87.6,24.5c0-2.1-0.8-4.1-2.2-5.6c-0.7-0.7-1.5-1.3-2.3-1.7c-0.9-0.4-1.9-0.6-2.9-0.6c-1,0-2,0.2-2.9,0.6
			c-0.9,0.4-1.7,1-2.3,1.7c-1.4,1.5-2.2,3.5-2.2,5.6c0,2.1,0.8,4.1,2.2,5.6c0.7,0.7,1.5,1.3,2.3,1.7c0.9,0.4,1.9,0.6,2.9,0.6
			c1,0,2-0.2,2.9-0.6c0.9-0.4,1.7-1,2.3-1.7C86.8,28.5,87.6,26.5,87.6,24.5L87.6,24.5z M94,24.5c0,1.9-0.4,3.7-1.1,5.4
			c-0.7,1.6-1.7,3.1-2.9,4.3c-1.2,1.2-2.7,2.2-4.4,2.9c-1.7,0.7-3.5,1-5.4,1c-1.9,0-3.7-0.3-5.3-1c-1.6-0.7-3.1-1.6-4.4-2.9
			c-1.3-1.2-2.3-2.7-2.9-4.3c-0.7-1.6-1.1-3.4-1.1-5.3c0-1.9,0.4-3.6,1.1-5.3c0.7-1.6,1.7-3.1,3-4.3c1.3-1.2,2.7-2.2,4.4-2.9
			c1.7-0.7,3.5-1.1,5.3-1c1.9,0,3.7,0.4,5.4,1c1.7,0.7,3.1,1.6,4.4,2.9s2.2,2.6,2.9,4.3C93.6,20.8,94,22.6,94,24.5z M64.3,37.2
			c-0.5,0.3-1.1,0.4-1.7,0.6c-0.6,0.1-1.3,0.2-2,0.2c-0.9,0-1.8-0.1-2.7-0.4c-0.8-0.2-1.6-0.7-2.3-1.2c-0.7-0.6-1.2-1.3-1.6-2.2
			c-0.4-0.9-0.6-2-0.6-3.3V0.4h6.5v29.5c0,1.1,0.2,1.8,0.6,2.2c0.4,0.4,0.9,0.6,1.5,0.6c0.7,0,1.5-0.2,2.1-0.7
			C64.3,32,64.3,37.2,64.3,37.2z M50.5,11.5L38.9,42.2c-0.9,2.3-2,3.9-3.4,5c-1.4,1-3.1,1.5-5,1.5c-0.3,0-0.6,0-1-0.1
			c-0.3,0-0.7-0.1-1-0.2l-2.1-6c0.5,0.2,1,0.4,1.6,0.6c0.5,0.1,1,0.2,1.5,0.2c1,0,1.9-0.2,2.8-0.7c0.8-0.5,1.5-1.3,1.9-2.6l0.9-2.6
			l-9.9-25.8h7L38,28.1l5.6-16.6L50.5,11.5L50.5,11.5z M23.6,7.7H6.8V16h16.5v5.6H6.8v15.8H0V1.7h23.5L23.6,7.7L23.6,7.7z"/>
	</g>
</g>
</svg>
